<?xml version="1.0" encoding="UTF-8"?>
<svg xmlns="http://www.w3.org/2000/svg" xmlns:xlink="http://www.w3.org/1999/xlink" viewBox="0 0 50 50" width="50px" height="50px">
<g id="surface176050302">
<path style="fill-rule:nonzero;fill:rgb(0%,0%,0%);fill-opacity:1;stroke-width:1;stroke-linecap:butt;stroke-linejoin:round;stroke:rgb(85.09804%,85.09804%,85.09804%);stroke-opacity:1;stroke-miterlimit:10;" d="M 6.875566 85.999999 C 6.875566 42.375439 42.375439 6.875566 85.999999 6.875566 C 129.624558 6.875566 165.124431 42.375439 165.124431 85.999999 C 165.124431 120.959128 142.318534 150.686554 110.793132 161.109404 C 108.359782 160.068471 106.642918 157.63512 106.642918 154.796212 L 106.642918 136.22164 C 106.642918 126.934354 98.383047 113.523891 89.433726 113.523891 L 89.433726 113.415742 C 108.562561 112.6587 120.783386 106.196804 126.515277 96.30118 C 139.263328 96.368773 150.483775 97.598967 157.05382 98.653419 C 157.256599 97.531374 157.432341 96.395811 157.581046 95.260247 C 151.092113 94.219314 140.371854 93.043195 128.164548 92.880972 C 128.610662 91.799483 128.989183 90.663919 129.286592 89.514837 C 141.615566 88.852426 152.295269 89.339096 158.040679 89.812247 C 158.108272 88.676684 158.216421 87.54112 158.216421 86.37852 C 152.443974 85.918887 142.034643 85.445735 130.003079 86.027036 C 130.219376 84.458877 130.3816 82.850162 130.3816 81.187373 C 130.719565 74.995849 128.651218 69.14229 124.866006 63.97818 C 126.596389 58.476106 129.340667 46.093058 124.190076 41.280432 C 114.889271 41.280432 108.359782 45.755092 105.26402 48.49937 C 99.761945 46.093058 93.218937 44.714159 85.999999 44.714159 C 78.78106 44.714159 72.238052 46.093058 66.398012 48.512889 C 63.30225 45.755092 56.759242 41.280432 47.471956 41.280432 C 42.65933 45.755092 45.065643 58.13814 46.782507 63.991699 C 42.997296 69.14229 40.942467 75.333814 40.942467 81.187373 C 40.942467 83.012385 41.118209 84.769805 41.388581 86.500187 C 29.61387 85.945924 19.474912 86.419075 13.810613 86.878708 C 13.824132 88.02779 13.905244 89.176872 13.986355 90.312436 C 19.637135 89.839284 30.059984 89.366133 42.145623 89.97447 C 42.429514 90.974848 42.753961 91.948188 43.146 92.89449 C 31.100917 93.137825 20.623994 94.340982 14.43247 95.354878 C 14.581174 96.490441 14.756916 97.626004 14.959695 98.748049 C 21.218813 97.707116 32.195925 96.463404 44.808789 96.314699 C 50.608274 106.33199 63.058915 112.807405 82.566271 113.429261 L 82.566271 113.523891 C 77.915869 113.523891 73.468246 117.146879 70.250816 121.932468 C 67.493019 123.405996 62.91021 123.838592 54.352929 123.838592 C 48.850854 123.838592 45.755092 120.74283 42.65933 116.957619 C 39.901534 113.172407 35.426873 110.428129 33.372044 110.076645 C 31.303697 110.076645 30.614247 111.117579 31.641662 111.793509 C 37.846705 115.930204 38.874119 123.500627 41.280432 127.961768 C 43.348779 132.098463 47.809921 134.153292 52.974031 134.153292 C 55.042378 134.153292 65.357079 134.153292 65.357079 134.153292 C 65.411153 134.153292 65.451709 134.139774 65.505784 134.126255 C 65.411153 134.842742 65.357079 135.545709 65.357079 136.22164 L 65.357079 154.796212 C 65.357079 157.63512 63.640215 160.068471 61.206865 161.109404 C 29.681463 150.686554 6.875566 120.959128 6.875566 85.999999 Z M 6.875566 85.999999 " transform="matrix(0.288953,0,0,0.288953,0.15,0.15)"/>
<path style=" stroke:none;fill-rule:nonzero;fill:rgb(85.09804%,85.09804%,85.09804%);fill-opacity:1;" d="M 17.835938 46.703125 C 18.539062 46.402344 19.035156 45.699219 19.035156 44.878906 L 19.035156 39.511719 C 19.035156 39.316406 19.050781 39.113281 19.078125 38.90625 C 19.0625 38.910156 19.050781 38.914062 19.035156 38.914062 C 19.035156 38.914062 16.054688 38.914062 15.457031 38.914062 C 13.964844 38.914062 12.675781 38.320312 12.078125 37.125 C 11.382812 35.835938 11.085938 33.648438 9.292969 32.453125 C 8.996094 32.257812 9.195312 31.957031 9.792969 31.957031 C 10.386719 32.058594 11.679688 32.851562 12.476562 33.945312 C 13.371094 35.039062 14.265625 35.933594 15.855469 35.933594 C 18.328125 35.933594 19.652344 35.808594 20.449219 35.382812 C 21.378906 34 22.664062 32.953125 24.007812 32.953125 L 24.007812 32.925781 C 18.371094 32.746094 14.773438 30.875 13.097656 27.980469 C 9.453125 28.023438 6.28125 28.382812 4.472656 28.683594 C 4.414062 28.359375 4.363281 28.03125 4.320312 27.703125 C 6.109375 27.410156 9.136719 27.0625 12.617188 26.992188 C 12.503906 26.71875 12.410156 26.4375 12.328125 26.148438 C 8.835938 25.972656 5.824219 26.109375 4.191406 26.246094 C 4.167969 25.917969 4.144531 25.585938 4.140625 25.253906 C 5.777344 25.121094 8.707031 24.984375 12.109375 25.144531 C 12.03125 24.644531 11.980469 24.136719 11.980469 23.609375 C 11.980469 21.917969 12.574219 20.128906 13.667969 18.640625 C 13.171875 16.949219 12.476562 13.371094 13.867188 12.078125 C 16.550781 12.078125 18.441406 13.371094 19.335938 14.167969 C 21.023438 13.46875 22.914062 13.070312 25 13.070312 C 27.085938 13.070312 28.976562 13.46875 30.566406 14.164062 C 31.460938 13.371094 33.347656 12.078125 36.035156 12.078125 C 37.523438 13.46875 36.730469 17.046875 36.230469 18.636719 C 37.324219 20.128906 37.921875 21.820312 37.824219 23.609375 C 37.824219 24.089844 37.777344 24.554688 37.714844 25.007812 C 41.191406 24.839844 44.199219 24.976562 45.867188 25.109375 C 45.867188 25.445312 45.835938 25.773438 45.816406 26.101562 C 44.15625 25.964844 41.070312 25.824219 37.507812 26.015625 C 37.421875 26.347656 37.3125 26.675781 37.183594 26.988281 C 40.710938 27.035156 43.808594 27.375 45.683594 27.675781 C 45.640625 28.003906 45.589844 28.332031 45.53125 28.65625 C 43.632812 28.351562 40.390625 27.996094 36.707031 27.976562 C 35.050781 30.835938 31.519531 32.703125 25.992188 32.921875 L 25.992188 32.953125 C 28.578125 32.953125 30.964844 36.828125 30.964844 39.511719 L 30.964844 44.878906 C 30.964844 45.699219 31.460938 46.402344 32.164062 46.703125 C 41.273438 43.691406 47.863281 35.101562 47.863281 25 C 47.863281 12.394531 37.605469 2.136719 25 2.136719 C 12.394531 2.136719 2.136719 12.394531 2.136719 25 C 2.136719 35.101562 8.726562 43.691406 17.835938 46.703125 Z M 17.835938 46.703125 "/>
</g>
</svg>
