<?xml version="1.0" encoding="UTF-8"?>
<svg xmlns="http://www.w3.org/2000/svg" xmlns:xlink="http://www.w3.org/1999/xlink" viewBox="0 0 50 50" width="50px" height="50px">
<g id="surface176537788">
<path style="fill-rule:nonzero;fill:rgb(85.09804%,85.09804%,85.09804%);fill-opacity:1;stroke-width:1;stroke-linecap:butt;stroke-linejoin:round;stroke:rgb(85.09804%,85.09804%,85.09804%);stroke-opacity:1;stroke-miterlimit:10;" d="M 154.566396 54.217743 C 154.62047 55.731828 154.661026 57.272949 154.661026 58.800552 C 154.661026 105.534392 119.080041 159.433096 54.014964 159.433096 C 34.034456 159.433096 15.446365 153.593056 -0.208187 143.535209 C 2.54961 143.873174 5.361481 144.035397 8.227427 144.035397 C 24.801245 144.035397 40.063757 138.398136 52.149395 128.908071 C 36.684104 128.62418 23.625125 118.377073 19.109909 104.331236 C 21.272887 104.763831 23.489939 104.980129 25.774585 104.980129 C 28.992014 104.980129 32.128332 104.547533 35.088908 103.736417 C 18.920649 100.478431 6.713342 86.189259 6.713342 69.04766 C 6.713342 68.898955 6.713342 68.75025 6.713342 68.601546 C 11.485412 71.251193 16.946931 72.84639 22.746416 73.03565 C 13.242832 66.681903 7.010752 55.839976 7.010752 43.578596 C 7.010752 37.103181 8.741134 31.033324 11.79634 25.788103 C 29.248868 47.188065 55.312751 61.274458 84.71573 62.747987 C 84.107393 60.165932 83.782946 57.46221 83.782946 54.690894 C 83.782946 35.156501 99.626759 19.326207 119.161152 19.326207 C 129.340667 19.326207 138.533323 23.611607 144.9817 30.49258 C 153.025274 28.897384 160.622734 25.963845 167.449632 21.92178 C 164.813503 30.168133 159.189761 37.103181 151.889711 41.483211 C 159.041056 40.61802 165.854436 38.725414 172.221702 35.900025 C 167.47667 42.997296 161.474406 49.229375 154.566396 54.217743 Z M 154.566396 54.217743 " transform="matrix(0.288953,0,0,0.288953,0.15,0.15)"/>
<path style=" stroke:none;fill-rule:nonzero;fill:rgb(85.09804%,85.09804%,85.09804%);fill-opacity:1;" d="M 49.914062 10.523438 C 48.074219 11.339844 46.105469 11.886719 44.039062 12.136719 C 46.148438 10.871094 47.773438 8.867188 48.535156 6.484375 C 46.5625 7.652344 44.367188 8.5 42.042969 8.960938 C 40.179688 6.972656 37.523438 5.734375 34.582031 5.734375 C 28.9375 5.734375 24.359375 10.308594 24.359375 15.953125 C 24.359375 16.753906 24.453125 17.535156 24.628906 18.28125 C 16.132812 17.855469 8.601562 13.785156 3.558594 7.601562 C 2.675781 9.117188 2.175781 10.871094 2.175781 12.742188 C 2.175781 16.285156 3.976562 19.417969 6.722656 21.253906 C 5.046875 21.199219 3.46875 20.738281 2.089844 19.972656 C 2.089844 20.015625 2.089844 20.058594 2.089844 20.101562 C 2.089844 25.054688 5.617188 29.183594 10.289062 30.125 C 9.433594 30.359375 8.527344 30.484375 7.597656 30.484375 C 6.9375 30.484375 6.296875 30.421875 5.671875 30.296875 C 6.976562 34.355469 10.75 37.316406 15.21875 37.398438 C 11.726562 40.140625 7.316406 41.769531 2.527344 41.769531 C 1.699219 41.769531 0.886719 41.722656 0.0898438 41.625 C 4.613281 44.53125 9.984375 46.21875 15.757812 46.21875 C 34.558594 46.21875 44.839844 30.644531 44.839844 17.140625 C 44.839844 16.699219 44.828125 16.253906 44.8125 15.816406 C 46.808594 14.375 48.542969 12.574219 49.914062 10.523438 Z M 49.914062 10.523438 "/>
</g>
</svg>
