<?xml version="1.0" encoding="UTF-8"?>
<svg xmlns="http://www.w3.org/2000/svg" xmlns:xlink="http://www.w3.org/1999/xlink" viewBox="0 0 50 50" width="50px" height="50px">
<g id="surface176036024">
<path style="fill-rule:nonzero;fill:rgb(85.09804%,85.09804%,85.09804%);fill-opacity:1;stroke-width:1;stroke-linecap:butt;stroke-linejoin:round;stroke:rgb(85.09804%,85.09804%,85.09804%);stroke-opacity:1;stroke-miterlimit:10;" d="M 116.957619 10.322812 C 141.615566 10.322812 161.677185 30.384431 161.677185 55.042378 L 161.677185 116.957619 C 161.677185 141.615566 141.615566 161.677185 116.957619 161.677185 L 55.042378 161.677185 C 30.384431 161.677185 10.322812 141.615566 10.322812 116.957619 L 10.322812 55.042378 C 10.322812 30.384431 30.384431 10.322812 55.042378 10.322812 Z M 17.203785 55.042378 L 17.203785 116.957619 C 17.203785 137.897948 34.102049 154.796212 55.042378 154.796212 L 116.957619 154.796212 C 137.897948 154.796212 154.796212 137.897948 154.796212 116.957619 L 154.796212 55.042378 C 154.796212 34.102049 137.897948 17.203785 116.957619 17.203785 L 55.042378 17.203785 C 34.102049 17.203785 17.203785 34.102049 17.203785 55.042378 Z M 134.153292 44.714159 C 134.153292 48.526408 131.084568 51.595132 127.285838 51.595132 C 123.473589 51.595132 120.404865 48.526408 120.404865 44.714159 C 120.404865 40.915429 123.473589 37.846705 127.285838 37.846705 C 131.084568 37.846705 134.153292 40.915429 134.153292 44.714159 Z M 123.838592 85.999999 C 123.838592 106.859216 106.859216 123.838592 85.999999 123.838592 C 65.140781 123.838592 48.161405 106.859216 48.161405 85.999999 C 48.161405 65.140781 65.140781 48.161405 85.999999 48.161405 C 106.859216 48.161405 123.838592 65.140781 123.838592 85.999999 Z M 55.042378 85.999999 C 55.042378 103.141598 68.858399 116.957619 85.999999 116.957619 C 103.141598 116.957619 116.957619 103.141598 116.957619 85.999999 C 116.957619 68.858399 103.141598 55.042378 85.999999 55.042378 C 68.858399 55.042378 55.042378 68.858399 55.042378 85.999999 Z M 55.042378 85.999999 " transform="matrix(0.288953,0,0,0.288953,0.15,0.15)"/>
<path style=" stroke:none;fill-rule:nonzero;fill:rgb(85.09804%,85.09804%,85.09804%);fill-opacity:1;" d="M 16.054688 3.132812 C 8.929688 3.132812 3.132812 8.929688 3.132812 16.054688 L 3.132812 33.945312 C 3.132812 41.070312 8.929688 46.867188 16.054688 46.867188 L 33.945312 46.867188 C 41.070312 46.867188 46.867188 41.070312 46.867188 33.945312 L 46.867188 16.054688 C 46.867188 8.929688 41.070312 3.132812 33.945312 3.132812 Z M 16.054688 5.121094 L 33.945312 5.121094 C 39.996094 5.121094 44.878906 10.003906 44.878906 16.054688 L 44.878906 33.945312 C 44.878906 39.996094 39.996094 44.878906 33.945312 44.878906 L 16.054688 44.878906 C 10.003906 44.878906 5.121094 39.996094 5.121094 33.945312 L 5.121094 16.054688 C 5.121094 10.003906 10.003906 5.121094 16.054688 5.121094 Z M 36.929688 11.085938 C 35.828125 11.085938 34.941406 11.972656 34.941406 13.070312 C 34.941406 14.171875 35.828125 15.058594 36.929688 15.058594 C 38.027344 15.058594 38.914062 14.171875 38.914062 13.070312 C 38.914062 11.972656 38.027344 11.085938 36.929688 11.085938 Z M 25 14.066406 C 18.972656 14.066406 14.066406 18.972656 14.066406 25 C 14.066406 31.027344 18.972656 35.933594 25 35.933594 C 31.027344 35.933594 35.933594 31.027344 35.933594 25 C 35.933594 18.972656 31.027344 14.066406 25 14.066406 Z M 25 16.054688 C 29.953125 16.054688 33.945312 20.046875 33.945312 25 C 33.945312 29.953125 29.953125 33.945312 25 33.945312 C 20.046875 33.945312 16.054688 29.953125 16.054688 25 C 16.054688 20.046875 20.046875 16.054688 25 16.054688 Z M 25 16.054688 "/>
</g>
</svg>
